<svg xmlns="http://www.w3.org/2000/svg" viewBox="0 0 110 38">
  <!-- Body -->
  <rect x="10" y="4" width="90" height="30" rx="2" fill="#1e1e1e"/>
  <!-- Pin 1 notch -->
  <path d="M10,14 A8,6 0 0,1 10,24" fill="#111"/>
  <!-- Left pins 1-8 -->
  <rect x="2" y="6" width="8" height="2.5" fill="#aaa"/>
  <rect x="2" y="9.5" width="8" height="2.5" fill="#aaa"/>
  <rect x="2" y="13" width="8" height="2.5" fill="#aaa"/>
  <rect x="2" y="16.5" width="8" height="2.5" fill="#aaa"/>
  <rect x="2" y="20" width="8" height="2.5" fill="#aaa"/>
  <rect x="2" y="23.5" width="8" height="2.5" fill="#aaa"/>
  <rect x="2" y="27" width="8" height="2.5" fill="#aaa"/>
  <rect x="2" y="30.5" width="8" height="2.5" fill="#aaa"/>
  <!-- Right pins 9-16 -->
  <rect x="100" y="30.5" width="8" height="2.5" fill="#aaa"/>
  <rect x="100" y="27" width="8" height="2.5" fill="#aaa"/>
  <rect x="100" y="23.5" width="8" height="2.5" fill="#aaa"/>
  <rect x="100" y="20" width="8" height="2.5" fill="#aaa"/>
  <rect x="100" y="16.5" width="8" height="2.5" fill="#aaa"/>
  <rect x="100" y="13" width="8" height="2.5" fill="#aaa"/>
  <rect x="100" y="9.5" width="8" height="2.5" fill="#aaa"/>
  <rect x="100" y="6" width="8" height="2.5" fill="#aaa"/>
  <!-- Pin 1 dot -->
  <circle cx="16" cy="11" r="2" fill="rgba(255,255,255,0.3)"/>
  <!-- Highlight -->
  <rect x="10" y="4" width="90" height="5" fill="rgba(255,255,255,0.08)"/>
  <!-- Body border -->
  <rect x="10" y="4" width="90" height="30" rx="2" fill="none" stroke="#444" stroke-width="0.5"/>
</svg>
