<svg xmlns="http://www.w3.org/2000/svg" viewBox="0 0 100 38">
  <!-- Body -->
  <rect x="10" y="4" width="80" height="30" rx="2" fill="#1e1e1e"/>
  <!-- Pin 1 notch -->
  <path d="M10,14 A8,6 0 0,1 10,24" fill="#111"/>
  <!-- Left pins 1-7 -->
  <rect x="2" y="7" width="8" height="2.5" fill="#aaa"/>
  <rect x="2" y="10.5" width="8" height="2.5" fill="#aaa"/>
  <rect x="2" y="14" width="8" height="2.5" fill="#aaa"/>
  <rect x="2" y="17.5" width="8" height="2.5" fill="#aaa"/>
  <rect x="2" y="21" width="8" height="2.5" fill="#aaa"/>
  <rect x="2" y="24.5" width="8" height="2.5" fill="#aaa"/>
  <rect x="2" y="28" width="8" height="2.5" fill="#aaa"/>
  <!-- Right pins 8-14 -->
  <rect x="90" y="28" width="8" height="2.5" fill="#aaa"/>
  <rect x="90" y="24.5" width="8" height="2.5" fill="#aaa"/>
  <rect x="90" y="21" width="8" height="2.5" fill="#aaa"/>
  <rect x="90" y="17.5" width="8" height="2.5" fill="#aaa"/>
  <rect x="90" y="14" width="8" height="2.5" fill="#aaa"/>
  <rect x="90" y="10.5" width="8" height="2.5" fill="#aaa"/>
  <rect x="90" y="7" width="8" height="2.5" fill="#aaa"/>
  <!-- Pin 1 dot -->
  <circle cx="16" cy="12" r="2" fill="rgba(255,255,255,0.3)"/>
  <!-- Highlight -->
  <rect x="10" y="4" width="80" height="5" fill="rgba(255,255,255,0.08)"/>
  <!-- Body border -->
  <rect x="10" y="4" width="80" height="30" rx="2" fill="none" stroke="#444" stroke-width="0.5"/>
</svg>
